<!DOCTYPE svg PUBLIC "-//W3C//DTD SVG 20010904//EN" "http://www.w3.org/TR/2001/REC-SVG-20010904/DTD/svg10.dtd">
<svg version="1.0" xmlns="http://www.w3.org/2000/svg" width="100px" height="100px" viewBox="0 0 1000 1000" preserveAspectRatio="xMidYMid meet">
<g id="layer101" fill="#fcf5e6" stroke="none">
 <path d="M212 988 c-8 -8 -9 -15 -1 -25 9 -10 7 -13 -10 -13 -18 0 -21 -6 -21 -45 0 -27 -9 -63 -21 -87 -17 -33 -18 -42 -7 -49 7 -5 16 -9 19 -9 4 0 10 -16 13 -35 4 -20 15 -41 26 -47 20 -13 18 -61 -5 -108 -15 -30 -12 -117 3 -132 15 -15 15 -58 0 -58 -6 0 -33 23 -59 51 -55 59 -57 57 -58 -69 0 -46 -6 -100 -12 -121 -10 -32 -9 -42 6 -65 10 -14 21 -26 26 -26 5 0 6 -6 3 -14 -6 -16 61 -30 85 -16 10 5 23 5 32 -1 7 -5 29 -8 48 -7 20 1 36 -3 39 -10 7 -21 39 -13 69 17 27 27 33 28 123 29 86 0 97 -2 123 -24 17 -14 36 -23 44 -20 8 4 21 6 29 6 8 0 14 7 14 15 0 9 8 19 18 22 9 4 24 15 33 25 9 10 24 18 33 18 9 0 16 4 16 9 0 5 16 19 35 32 61 42 71 107 24 160 -43 47 -58 89 -60 164 -1 36 -6 65 -10 65 -5 0 -9 9 -9 19 0 11 -4 23 -10 26 -17 11 -11 36 14 56 36 28 42 72 17 108 -12 16 -21 35 -21 43 0 8 -13 35 -30 61 -16 26 -30 52 -30 57 0 15 -513 13 -528 -2z"/>
 </g>
<g id="layer102" fill="#dcbd9f" stroke="none">
 <path d="M211 986 c-8 -10 -9 -16 -1 -21 5 -3 10 1 10 11 0 14 2 15 17 3 14 -12 16 -12 12 0 -7 21 -24 24 -38 7z"/>
 <path d="M730 973 c0 -6 -12 -13 -27 -15 -27 -3 -28 -5 -27 -55 1 -46 -1 -53 -17 -53 -28 0 -23 -17 8 -25 32 -8 52 -32 53 -62 0 -52 68 -42 97 14 13 25 13 32 0 58 -8 17 -20 44 -26 60 -13 35 -60 96 -61 78z"/>
 <path d="M180 924 c0 -14 4 -23 9 -20 5 3 14 -1 21 -9 9 -11 15 -12 25 -2 10 9 9 16 -4 34 -23 31 -51 30 -51 -3z"/>
 <path d="M454 882 c-6 -4 -16 -17 -23 -29 -9 -18 -8 -24 6 -32 10 -6 15 -11 11 -12 -16 -3 -28 -7 -30 -9 -2 -1 -11 -3 -20 -5 -24 -4 -69 -41 -61 -49 4 -4 -14 -28 -38 -54 -63 -65 -77 -108 -68 -202 3 -41 3 -77 -1 -80 -5 -3 -12 -18 -15 -33 -10 -36 -29 -34 -61 8 -14 19 -29 35 -33 35 -3 0 -6 -24 -7 -52 -1 -29 -4 -81 -9 -115 l-8 -62 29 -7 c16 -4 36 -13 46 -21 11 -10 35 -14 75 -12 32 1 67 -1 79 -5 13 -4 38 1 65 13 36 17 60 20 132 16 58 -2 97 -9 112 -19 23 -15 26 -15 61 19 24 23 45 35 64 35 22 0 29 5 32 23 2 14 11 23 25 25 31 5 73 47 73 74 0 13 -9 39 -19 58 -11 19 -25 46 -31 59 -6 13 -18 29 -26 35 -8 7 -17 20 -19 31 -2 11 -4 22 -5 25 -1 3 -2 16 -1 30 3 54 -57 114 -101 102 -22 -5 -22 -10 -4 -53 13 -32 14 -32 22 -8 l8 24 7 -25 c11 -40 10 -48 -10 -67 -11 -10 -21 -31 -23 -48 -3 -30 -3 -30 -27 18 -14 26 -28 47 -32 47 -3 0 -13 -9 -20 -21 -20 -29 -49 -16 -49 22 0 16 -3 29 -6 29 -12 0 -64 -55 -64 -68 0 -16 -64 46 -73 70 -8 23 7 32 23 13 17 -21 59 -14 80 12 21 27 30 29 30 8 0 -23 26 -18 44 10 23 35 20 51 -14 75 -18 13 -30 30 -30 44 0 22 -33 46 -65 46 -33 0 -20 16 13 17 43 2 92 19 92 31 0 5 -18 12 -40 16 -22 3 -40 11 -40 16 0 12 -40 13 -56 2z m-104 -247 c10 -12 9 -20 -5 -41 -13 -20 -19 -23 -25 -13 -5 7 -4 21 1 31 6 10 7 23 4 28 -10 16 11 12 25 -5z m350 -234 c-12 -24 -30 -28 -30 -6 0 13 31 38 38 30 2 -2 -1 -13 -8 -24z"/>
 <path d="M593 763 c9 -9 20 -13 24 -9 4 4 1 11 -7 16 -25 16 -35 11 -17 -7z"/>
 </g>
<g id="layer103" fill="#c19770" stroke="none">
 <path d="M745 962 c5 -9 1 -13 -11 -12 -11 1 -24 2 -30 1 -16 -1 -24 -39 -10 -46 8 -3 8 -7 -1 -11 -19 -9 -16 -29 12 -70 14 -20 25 -47 25 -60 0 -26 26 -32 60 -14 27 14 41 63 26 87 -7 10 -16 31 -20 46 -4 17 -11 25 -18 21 -7 -5 -9 -2 -6 7 3 9 -3 26 -14 40 -11 13 -17 18 -13 11z"/>
 <path d="M477 838 c-7 -5 1 -8 21 -8 17 0 32 4 32 9 0 11 -35 10 -53 -1z"/>
 <path d="M432 777 c-6 -7 -24 -39 -41 -71 -24 -45 -29 -62 -21 -77 13 -23 30 -25 30 -4 0 19 9 19 34 0 30 -23 57 -18 95 16 33 31 34 32 17 59 -9 16 -16 36 -16 45 0 39 -73 63 -98 32z"/>
 <path d="M691 651 c-7 -5 -9 -11 -4 -14 4 -3 17 1 28 9 21 16 0 20 -24 5z"/>
 <path d="M256 625 c-4 -14 -2 -33 3 -42 8 -14 9 -14 14 3 3 10 8 29 12 42 4 16 2 22 -8 22 -8 0 -18 -11 -21 -25z"/>
 <path d="M728 615 c2 -14 8 -28 13 -31 5 -3 0 -19 -12 -35 -22 -32 -32 -86 -16 -92 20 -6 -15 -77 -52 -106 -49 -39 -85 -48 -115 -27 -36 23 -40 48 -15 95 12 23 19 44 16 47 -3 3 -13 -8 -22 -26 -20 -38 -31 -33 -18 7 11 31 7 53 -9 53 -5 0 -7 -12 -3 -28 10 -48 -16 -58 -54 -22 -17 17 -31 34 -31 39 0 5 -13 16 -29 24 -31 16 -51 7 -51 -22 0 -8 -9 -25 -21 -37 l-20 -22 31 -36 c23 -25 27 -36 17 -36 -22 0 -57 48 -57 78 0 21 -2 22 -15 12 -10 -9 -15 -9 -15 -1 0 6 -5 11 -10 11 -7 0 -7 -7 1 -21 9 -17 7 -25 -10 -43 -12 -12 -21 -30 -21 -39 0 -9 -5 -17 -10 -17 -12 0 -48 36 -67 66 -11 17 -12 14 -11 -21 1 -22 -4 -71 -11 -109 -6 -38 -10 -70 -9 -71 2 -1 25 -12 52 -24 53 -23 115 -28 134 -9 8 8 15 8 26 -1 15 -13 81 -6 102 11 17 12 153 12 187 -1 43 -17 66 -13 93 14 14 14 32 25 40 25 8 0 25 11 37 23 12 13 34 27 49 30 15 4 36 20 48 37 19 27 20 31 6 58 -8 16 -13 32 -10 34 2 3 -2 11 -11 18 -8 7 -15 19 -15 26 0 8 -4 14 -9 14 -13 0 -54 69 -55 94 -1 11 -5 27 -9 34 -5 6 -6 12 -2 12 3 0 1 9 -5 20 -16 29 -38 26 -32 -5z m-248 -251 c0 -2 -4 -12 -9 -22 -5 -9 -12 -25 -15 -35 -5 -15 -12 -17 -38 -12 -43 9 -47 14 -24 27 10 5 27 21 38 33 17 19 48 25 48 9z"/>
 <path d="M593 503 c-4 -10 -15 -26 -24 -36 -19 -20 -29 -61 -20 -75 3 -5 21 -12 40 -16 31 -5 39 -2 71 29 l37 36 -36 39 c-40 44 -58 50 -68 23z"/>
 </g>
<g id="layer104" fill="#8f7466" stroke="none">
 <path d="M696 935 c-3 -8 -1 -15 5 -15 5 0 3 -12 -5 -27 -13 -25 -12 -30 14 -68 15 -22 25 -45 23 -51 -6 -17 21 -34 44 -28 12 3 28 20 37 37 13 28 13 35 1 54 -8 12 -15 29 -15 38 0 8 -9 15 -20 15 -21 0 -60 33 -60 50 0 15 -17 12 -24 -5z"/>
 <path d="M439 772 c-25 -27 -42 -79 -35 -107 4 -17 19 -31 39 -40 28 -12 35 -12 57 3 46 30 50 36 39 78 -22 76 -64 104 -100 66z"/>
 <path d="M733 548 c-11 -20 -18 -54 -18 -85 0 -64 -22 -96 -96 -141 -29 -17 -58 -41 -64 -52 -8 -16 -13 -18 -23 -8 -7 7 -12 21 -12 31 0 25 -21 99 -31 111 -4 5 -6 -8 -4 -28 2 -20 -2 -36 -7 -36 -6 0 -8 -9 -5 -20 6 -22 -32 -67 -42 -51 -3 4 -20 15 -37 24 -30 15 -88 75 -110 113 -10 18 -12 18 -28 1 -10 -9 -22 -17 -27 -17 -5 0 -11 -11 -15 -25 -3 -14 -10 -25 -16 -25 -11 0 -48 38 -64 66 -10 16 -11 12 -11 -26 0 -25 -4 -73 -8 -107 l-8 -62 54 -24 c61 -27 109 -25 109 4 0 23 -1 23 45 3 38 -16 81 -16 102 -1 7 5 66 6 132 3 88 -4 121 -2 121 6 0 6 3 8 7 5 10 -10 53 34 53 54 0 10 5 21 10 24 7 4 9 -2 4 -19 -8 -33 -5 -33 41 4 21 17 44 30 51 30 32 0 44 94 16 122 -7 7 -12 18 -12 25 0 7 -4 13 -9 13 -13 0 -61 77 -61 100 0 30 -17 24 -37 -12z"/>
 <path d="M590 481 c-15 -30 -12 -66 8 -84 17 -16 20 -15 52 12 l34 28 -23 31 c-25 36 -55 41 -71 13z"/>
 <path d="M349 478 c-43 -37 -44 -46 -1 -87 35 -34 42 -37 53 -25 20 24 22 84 3 105 -20 22 -34 24 -55 7z"/>
 </g>
<g id="layer105" fill="#5e5a56" stroke="none">
 <path d="M705 891 c-7 -24 4 -51 21 -51 15 0 17 12 8 48 -8 27 -21 29 -29 3z"/>
 <path d="M735 828 c-3 -7 -1 -26 3 -43 11 -38 55 -44 60 -7 2 12 -1 22 -6 22 -5 0 -12 9 -15 20 -6 22 -35 27 -42 8z"/>
 <path d="M442 752 c-35 -33 -42 -74 -18 -108 14 -18 15 -18 21 8 9 34 35 45 42 18 6 -23 14 -25 31 -8 20 20 14 56 -16 89 l-28 31 -32 -30z"/>
 <path d="M732 540 c-6 -11 -12 -42 -12 -70 0 -66 -25 -114 -89 -169 -51 -44 -62 -69 -38 -89 31 -26 126 25 127 67 0 11 -3 11 -17 0 -14 -12 -16 -12 -11 1 2 8 14 19 25 25 12 5 23 20 26 32 4 22 3 22 -13 8 -21 -19 -30 -19 -30 -1 0 16 26 46 40 46 5 0 16 -13 25 -30 14 -27 14 -33 0 -61 -23 -43 -10 -49 25 -11 16 18 36 32 46 32 14 0 16 7 11 46 -4 38 -2 44 11 39 14 -5 13 -3 -1 13 -9 10 -17 24 -17 31 0 7 -4 10 -9 7 -5 -3 -25 19 -45 49 -20 30 -37 55 -39 55 -1 0 -8 -9 -15 -20z"/>
 <path d="M594 463 c-13 -49 28 -73 65 -38 12 12 12 17 -3 39 -22 34 -54 34 -62 -1z"/>
 <path d="M334 455 c-21 -32 -5 -55 36 -55 32 0 42 22 26 58 -12 29 -42 28 -62 -3z"/>
 <path d="M131 365 c1 -22 -1 -47 -5 -57 -4 -9 -6 -31 -4 -50 2 -27 7 -32 23 -30 76 14 107 13 130 -2 25 -17 78 -17 118 -1 25 10 22 45 -4 45 -11 0 -17 -4 -14 -10 3 -6 -1 -7 -10 -4 -11 5 -13 10 -7 16 7 7 -4 29 -31 63 -44 56 -57 65 -57 40 0 -9 -6 -12 -15 -9 -9 4 -23 -3 -33 -17 -23 -28 -45 -21 -72 23 l-21 33 2 -40z"/>
 <path d="M487 314 c-4 -4 -7 -17 -7 -29 0 -12 -7 -30 -16 -41 -8 -10 -13 -13 -9 -6 10 20 -13 14 -25 -7 -9 -18 -6 -19 38 -18 l47 2 -2 44 c-2 44 -13 67 -26 55z"/>
 <path d="M194 182 c8 -9 22 -11 35 -7 30 9 16 26 -20 23 -25 -2 -27 -4 -15 -16z"/>
 </g>

</svg>